<svg width="48" height="48" viewBox="0 0 48 48" fill="none" xmlns="http://www.w3.org/2000/svg">
  <circle cx="24" cy="24" r="24" fill="white" fill-opacity="0.1" />
  <path
    d="M19.2 24C19.2 24.6365 18.9472 25.2469 18.4971 25.697C18.047 26.1471 17.4365 26.4 16.8 26.4C16.1635 26.4 15.5531 26.1471 15.103 25.697C14.6529 25.2469 14.4 24.6365 14.4 24C14.4 23.3635 14.6529 22.753 15.103 22.3029C15.5531 21.8528 16.1635 21.6 16.8 21.6C17.4365 21.6 18.047 21.8528 18.4971 22.3029C18.9472 22.753 19.2 23.3635 19.2 24ZM26.4 24C26.4 24.6365 26.1472 25.2469 25.6971 25.697C25.247 26.1471 24.6365 26.4 24 26.4C23.3635 26.4 22.7531 26.1471 22.303 25.697C21.8529 25.2469 21.6 24.6365 21.6 24C21.6 23.3635 21.8529 22.753 22.303 22.3029C22.7531 21.8528 23.3635 21.6 24 21.6C24.6365 21.6 25.247 21.8528 25.6971 22.3029C26.1472 22.753 26.4 23.3635 26.4 24ZM31.2 26.4C31.8365 26.4 32.447 26.1471 32.8971 25.697C33.3472 25.2469 33.6 24.6365 33.6 24C33.6 23.3635 33.3472 22.753 32.8971 22.3029C32.447 21.8528 31.8365 21.6 31.2 21.6C30.5635 21.6 29.9531 21.8528 29.503 22.3029C29.0529 22.753 28.8 23.3635 28.8 24C28.8 24.6365 29.0529 25.2469 29.503 25.697C29.9531 26.1471 30.5635 26.4 31.2 26.4Z"
    fill="white" />
</svg>